<svg xmlns="http://www.w3.org/2000/svg" version="1.0" width="134.000000pt" height="26.000000pt" viewBox="0 0 134.000000 26.000000" preserveAspectRatio="xMidYMid meet">

<g transform="translate(0.000000,26.000000) scale(0.100000,-0.100000)" fill="#2196f3" stroke="none">
<path d="M127 244 c-4 -4 -7 -23 -7 -43 l0 -35 -28 27 c-28 27 -29 27 -45 9 -16 -17 -15 -20 9 -43 l26 -24 -39 -5 c-30 -4 -39 -10 -41 -27 -3 -21 0 -23 51 -23 49 0 58 3 76 28 l21 27 21 -28 c18 -23 28 -27 70 -27 46 0 49 2 49 25 0 22 -4 25 -37 25 l-37 0 27 28 c27 28 27 29 9 45 -17 16 -20 15 -43 -9 l-24 -26 -5 39 c-4 29 -10 39 -25 41 -12 2 -24 0 -28 -4z" fill="#2196f3"/>
<path d="M1100 205 c0 -33 -2 -34 -28 -29 -51 10 -86 -49 -60 -103 12 -25 19 -28 66 -29 l52 -2 0 99 c0 81 -3 99 -15 99 -10 0 -15 -11 -15 -35z m-5 -95 c0 -28 -4 -36 -22 -38 -26 -4 -39 28 -23 58 18 33 45 21 45 -20z" fill="#2196f3"/>
<path d="M382 218 c3 -7 17 -50 32 -96 24 -70 31 -82 50 -82 19 0 26 13 53 95 l31 95 -23 0 c-18 0 -24 -7 -29 -32 -4 -18 -13 -46 -20 -63 l-13 -30 -19 62 c-16 54 -22 63 -43 63 -14 0 -21 -5 -19 -12z" fill="#2196f3"/>
<path d="M593 220 c-30 -12 -41 -56 -20 -78 9 -9 31 -21 49 -26 18 -6 33 -18 33 -26 0 -21 -42 -25 -71 -6 -23 16 -24 16 -24 -8 0 -19 7 -26 30 -31 37 -8 85 2 100 20 6 8 10 26 8 42 -2 23 -11 31 -46 43 -55 19 -54 46 1 44 24 -1 37 3 37 11 0 24 -54 32 -97 15z" fill="#2196f3"/>
<path d="M735 155 c-14 -13 -25 -33 -25 -45 0 -26 43 -70 69 -70 33 0 51 11 51 33 0 16 -3 18 -12 9 -32 -32 -80 8 -58 48 12 22 40 26 58 8 9 -9 12 -7 12 9 0 40 -59 45 -95 8z" fill="#2196f3"/>
<path d="M870 160 c-41 -41 -12 -120 45 -120 31 0 75 41 75 70 0 29 -44 70 -75 70 -14 0 -34 -9 -45 -20z m70 -30 c14 -26 -4 -63 -28 -58 -18 3 -28 39 -18 64 8 20 34 17 46 -6z" fill="#2196f3"/>
<path d="M1180 160 c-22 -22 -26 -60 -10 -90 21 -38 120 -37 120 2 0 17 -3 18 -14 9 -18 -15 -68 -10 -74 7 -2 8 10 12 42 12 42 0 46 2 46 24 0 50 -73 73 -110 36z m65 -20 c4 -6 -5 -10 -20 -10 -15 0 -24 4 -20 10 3 6 12 10 20 10 8 0 17 -4 20 -10z" fill="#2196f3"/>
<path d="M97 52 c-31 -34 -21 -42 53 -42 39 0 70 3 70 8 0 4 -7 18 -16 30 -20 28 -83 31 -107 4z" fill="#2196f3"/>
</g>
</svg>